<svg width="24" height="24" viewBox="0 0 24 24" fill="none" xmlns="http://www.w3.org/2000/svg">
<path fill-rule="evenodd" clip-rule="evenodd" d="M14.9298 3.64082C14.9763 3.4328 15.0004 3.21842 15.0004 3.00024C15.0004 1.34323 13.657 0.000244141 12.0004 0.000244141C10.3431 0.000244141 9.00041 1.34296 9.00041 3.00024C9.00041 3.21839 9.02451 3.43274 9.07099 3.64074C6.73686 4.71801 5.09619 7.04268 5.00437 9.75934L4.99385 10.3891C4.93789 12.0732 4.51918 13.726 3.76399 15.2355L2.10583 18.5528C1.77349 19.2177 2.25698 19.9999 3.00031 19.9999H8.00061C8.00061 22.2092 9.79133 23.9999 12.0006 23.9999C14.2099 23.9999 16.0006 22.2092 16.0006 19.9999H21.0003C21.7436 19.9999 22.2271 19.2177 21.8948 18.5528L20.2368 15.2358C19.4815 13.726 19.0627 12.0732 19.0068 10.3891L18.9963 9.75934C18.9044 7.04275 17.2638 4.71813 14.9298 3.64082ZM12.9978 3.07051C12.9995 3.04721 13.0004 3.02378 13.0004 3.00024C13.0004 2.44795 12.5526 2.00024 12.0004 2.00024C11.4477 2.00024 11.0004 2.44753 11.0004 3.00024C11.0004 3.02377 11.0013 3.04719 11.003 3.07048C11.3288 3.024 11.6617 2.99994 12.0003 2.99994C12.339 2.99994 12.672 3.024 12.9978 3.07051ZM13.2155 5.14875C13.2809 5.17414 13.3481 5.19229 13.4161 5.20334C15.4213 5.79458 16.9029 7.60952 16.9957 9.78311L17.0069 10.4252C17.0684 12.4076 17.5592 14.3537 18.448 16.1304L19.3825 17.9999H4.61813L5.55279 16.1301C6.44146 14.3537 6.93223 12.4076 6.99372 10.4252L7.00493 9.78311C7.09775 7.6096 8.57919 5.79473 10.5843 5.20341C10.6525 5.19235 10.72 5.17413 10.7857 5.1486C11.1745 5.0515 11.5814 4.99994 12.0003 4.99994C12.4194 4.99994 12.8265 5.05155 13.2155 5.14875ZM14.0006 19.9999H10.0006C10.0006 21.1047 10.8959 21.9999 12.0006 21.9999C13.1053 21.9999 14.0006 21.1047 14.0006 19.9999Z" fill="#406A76"/>
</svg>
