<svg width="52" height="75" viewBox="0 0 52 75" fill="none" xmlns="http://www.w3.org/2000/svg">
<path fill-rule="evenodd" clip-rule="evenodd" d="M36.8577 0.6005C37.8672 0.294425 38.9605 0.705128 39.495 1.59212C41.2049 4.43425 44.9854 11.0289 42.2112 17.975C39.4355 24.9195 31.8327 27.8865 28.5933 28.8688C27.5837 29.1764 26.4905 28.7641 25.9576 27.8787C24.2461 25.035 20.4882 18.2139 23.2639 11.2679C26.0397 4.32338 33.6199 1.58432 36.8577 0.6005ZM51.2833 39.0649C51.6633 39.88 51.4025 40.842 50.657 41.3682C48.4899 42.9002 43.6114 45.6549 38.0566 44.2338C32.5035 42.8143 29.6569 38.0842 28.5508 35.7168C28.1692 34.9016 28.4316 33.9412 29.1771 33.4134C31.3426 31.8815 36.2228 29.1283 41.7759 30.5478C47.3306 31.9673 50.1772 36.6975 51.2833 39.0649Z" fill="#45D0C1"/>
<path fill-rule="evenodd" clip-rule="evenodd" d="M21.1982 72.9253C20.4393 73.4516 19.448 73.3672 18.8066 72.7208C16.754 70.6491 12.1449 65.7944 12.8368 58.9649C13.5305 52.1363 19.0951 47.5888 21.5305 45.8998C22.2891 45.3721 23.2808 45.4579 23.9204 46.1033C25.9747 48.176 30.6171 53.2361 29.9238 60.066C29.2301 66.8945 23.6319 71.2353 21.1982 72.9253ZM1.17937 38.8754C0.643217 38.3194 0.657397 37.5006 1.21493 36.9146C2.83527 35.2092 6.64423 31.9176 12.0411 31.7657C17.4362 31.6129 21.1326 34.6925 22.692 36.3069C23.2296 36.8626 23.2136 37.6805 22.6565 38.2678C21.0376 39.9728 17.2268 43.2635 11.8317 43.4163C6.43523 43.5694 2.73882 40.4898 1.17937 38.8754Z" fill="#45D0C1"/>
</svg>
